<svg width="18" height="19" viewBox="0 0 18 19" fill="none" xmlns="http://www.w3.org/2000/svg">
<path d="M9 0.5C7.21997 0.5 5.47991 1.02784 3.99987 2.01677C2.51983 3.00571 1.36628 4.41131 0.685088 6.05585C0.00389957 7.70038 -0.17433 9.50998 0.172936 11.2558C0.520203 13.0016 1.37737 14.6053 2.63604 15.864C3.89472 17.1226 5.49836 17.9798 7.24419 18.3271C8.99002 18.6743 10.7996 18.4961 12.4442 17.8149C14.0887 17.1337 15.4943 15.9802 16.4832 14.5001C17.4722 13.0201 18 11.28 18 9.5C18 7.11305 17.0518 4.82387 15.364 3.13604C13.6761 1.44821 11.387 0.5 9 0.5V0.5ZM8.8035 3.2585H10.7415C10.7811 3.25855 10.8202 3.26776 10.8557 3.28541C10.8912 3.30307 10.9222 3.32869 10.9461 3.36027C10.9701 3.39185 10.9864 3.42855 10.9939 3.46749C11.0013 3.50643 10.9996 3.54656 10.989 3.58475L9.4665 8.77325L10.8953 8.33675L10.5893 9.3755L9.14625 9.7955L8.21025 12.956H13.2173C13.2569 12.9562 13.296 12.9656 13.3315 12.9834C13.3669 13.0013 13.3978 13.0271 13.4216 13.0588C13.4454 13.0906 13.4616 13.1274 13.4688 13.1664C13.476 13.2054 13.4741 13.2456 13.4633 13.2837L13.0268 14.7837C13.0059 14.8551 12.9624 14.9178 12.9029 14.9624C12.8434 15.007 12.7711 15.0312 12.6968 15.0312H5.04975L6.342 10.6647L4.9125 11.0997L5.2275 10.079L6.66 9.644L8.4765 3.509C8.49642 3.43726 8.53921 3.37398 8.59836 3.32877C8.65751 3.28356 8.7298 3.25889 8.80425 3.2585H8.8035Z" fill="#CACEDC"/>
</svg>
