<svg width="17" height="17" viewBox="0 0 17 17" fill="none" xmlns="http://www.w3.org/2000/svg">
<path d="M6.82788 13.5618C8.20581 13.5618 9.49243 13.1136 10.5383 12.3665L14.4729 16.3011C14.6555 16.4837 14.8962 16.575 15.1453 16.575C15.6848 16.575 16.075 16.16 16.075 15.6287C16.075 15.3797 15.9919 15.1473 15.8093 14.9646L11.8997 11.0467C12.7214 9.96758 13.2112 8.63115 13.2112 7.17851C13.2112 3.66728 10.3391 0.795212 6.82788 0.795212C3.30835 0.795212 0.44458 3.66728 0.44458 7.17851C0.44458 10.6897 3.30835 13.5618 6.82788 13.5618ZM6.82788 12.1839C4.08032 12.1839 1.82251 9.91777 1.82251 7.17851C1.82251 4.43925 4.08032 2.17314 6.82788 2.17314C9.56714 2.17314 11.8333 4.43925 11.8333 7.17851C11.8333 9.91777 9.56714 12.1839 6.82788 12.1839Z" fill="#B2B8CC"/>
</svg>
