<svg width="18" height="19" viewBox="0 0 18 19" fill="none" xmlns="http://www.w3.org/2000/svg">
<path d="M8.17026 11.9834C8.96936 12.1964 10.7492 12.6707 11.028 11.5424C11.3181 10.3947 9.61721 10.0105 8.78146 9.82175C8.68539 9.80005 8.60075 9.78093 8.53188 9.76354L7.99047 11.9362C8.04243 11.9493 8.10286 11.9654 8.17026 11.9834Z" fill="url(#paint0_linear_139_16523)"/>
<path d="M8.94275 8.80694C9.61092 8.98744 11.0791 9.38403 11.3374 8.35728C11.5958 7.31706 10.1811 7.00038 9.48548 6.84465C9.40527 6.8267 9.33462 6.81088 9.2772 6.79634L8.78501 8.7651C8.83033 8.77657 8.88339 8.7909 8.94275 8.80694Z" fill="url(#paint1_linear_139_16523)"/>
<path fill-rule="evenodd" clip-rule="evenodd" d="M6.82369 18.2304C11.6408 19.4329 16.5283 16.5005 17.7308 11.6765C18.9333 6.85238 15.9938 1.96509 11.1767 0.76964C6.35252 -0.432916 1.47212 2.49954 0.269639 7.32354C-0.932917 12.1406 1.99954 17.0279 6.82369 18.2304ZM11.3022 6.10728C12.5538 6.53619 13.4608 7.18306 13.285 8.37838C13.1584 9.25025 12.6733 9.67916 12.0194 9.82682C12.9053 10.2909 13.3553 11.001 12.9264 12.2245C12.3991 13.7503 11.1334 13.8768 9.44595 13.5604L9.03813 15.1987L8.05376 14.9526L8.45454 13.3354C8.20141 13.2721 7.93422 13.2018 7.66704 13.1315L7.25922 14.7557L6.27485 14.5096L6.68266 12.8714C6.54967 12.8351 6.41667 12.8011 6.28235 12.7668C6.18233 12.7413 6.08157 12.7155 5.97953 12.6885L4.69281 12.3651L5.185 11.2331C5.185 11.2331 5.90922 11.4229 5.90219 11.4088C6.17641 11.4792 6.30297 11.2964 6.35219 11.1768L6.99907 8.58932C7.03422 8.60338 7.06937 8.61041 7.10453 8.61744C7.06746 8.5989 7.03582 8.59123 7.00961 8.58487C7.00599 8.58399 7.00248 8.58314 6.99907 8.58228L7.46313 6.73306C7.47719 6.52213 7.40688 6.25494 7.0061 6.1565C7.02016 6.14947 6.28891 5.98072 6.28891 5.98072L6.54907 4.92603L7.91313 5.26353V5.27056C8.11704 5.31978 8.32798 5.369 8.54594 5.41822L8.94673 3.80103L9.9311 4.04712L9.53735 5.63619C9.80454 5.69244 10.0717 5.75572 10.3319 5.819L10.7256 4.23697L11.71 4.48306L11.3022 6.10728Z" fill="url(#paint2_linear_139_16523)"/>
<defs>
<linearGradient id="paint0_linear_139_16523" x1="8.99514" y1="0.49568" x2="8.99514" y2="18.4982" gradientUnits="userSpaceOnUse">
<stop stop-color="#F9AA4B"/>
<stop offset="1" stop-color="#F7931A"/>
</linearGradient>
<linearGradient id="paint1_linear_139_16523" x1="8.99514" y1="0.49568" x2="8.99514" y2="18.4982" gradientUnits="userSpaceOnUse">
<stop stop-color="#F9AA4B"/>
<stop offset="1" stop-color="#F7931A"/>
</linearGradient>
<linearGradient id="paint2_linear_139_16523" x1="8.99514" y1="0.49568" x2="8.99514" y2="18.4982" gradientUnits="userSpaceOnUse">
<stop stop-color="#F9AA4B"/>
<stop offset="1" stop-color="#F7931A"/>
</linearGradient>
</defs>
</svg>
