<svg width="19" height="17" viewBox="0 0 19 17" fill="none" xmlns="http://www.w3.org/2000/svg">
<path fill-rule="evenodd" clip-rule="evenodd" d="M0.141911 7.62299L3.42394 0.578583C3.43469 0.554857 3.45192 0.534814 3.47356 0.520872C3.4952 0.506931 3.52033 0.499685 3.54591 0.50001H14.7114C14.7369 0.499942 14.7618 0.507366 14.7832 0.521396C14.8047 0.535425 14.8217 0.555467 14.8323 0.579125L18.1143 7.62353C18.1268 7.64974 18.1308 7.67933 18.1256 7.708C18.1205 7.73666 18.1065 7.76289 18.0857 7.78285L9.22172 16.4616C9.19655 16.4862 9.16301 16.5 9.12813 16.5C9.09324 16.5 9.0597 16.4862 9.03453 16.4616L0.170547 7.7823C0.149761 7.76235 0.135769 7.73612 0.130617 7.70746C0.125464 7.67879 0.129422 7.64919 0.141911 7.62299ZM9.14113 8.37132C9.87454 8.37132 10.2033 8.35127 10.267 8.34639L10.2648 8.34585C12.5149 8.24398 14.1933 7.84299 14.1933 7.36397C14.1933 6.88495 12.5144 6.48396 10.2648 6.38154V7.94757C10.2017 7.95353 9.8512 7.98333 9.15121 7.98333C8.56788 7.98333 8.14576 7.95786 7.99833 7.94703V6.38046C5.74403 6.48342 4.06138 6.88386 4.06138 7.36397C4.06138 7.84407 5.74403 8.24506 7.99833 8.34639C8.14364 8.35344 8.5578 8.37132 9.14113 8.37132ZM10.267 6.21901V6.21952L10.2664 6.21898C10.2666 6.21899 10.2668 6.219 10.267 6.21901ZM10.267 4.81769V6.21901C12.8137 6.33935 14.7273 6.85519 14.7273 7.47343C14.7273 8.09171 12.8119 8.60758 10.2664 8.72733V13.2211H7.9978V8.72896C5.44653 8.60866 3.5279 8.09279 3.5279 7.47397C3.5279 6.85514 5.44653 6.33874 7.9978 6.21898V4.81769H4.85895V2.67998H13.4063V4.81769H10.267Z" fill="#50AF95"/>
</svg>
