<svg width="11" height="12" viewBox="0 0 11 12" fill="none" xmlns="http://www.w3.org/2000/svg">
<path fill-rule="evenodd" clip-rule="evenodd" d="M1.53033 11.0303L6.03033 6.53033C6.32322 6.23744 6.32322 5.76256 6.03033 5.46967L1.53033 0.96967C1.23744 0.676777 0.762563 0.676777 0.469671 0.96967C0.176777 1.26256 0.176777 1.73744 0.46967 2.03033L4.43934 6L0.46967 9.96967C0.176777 10.2626 0.176777 10.7374 0.46967 11.0303C0.762563 11.3232 1.23744 11.3232 1.53033 11.0303ZM5.53033 11.0303L10.0303 6.53033C10.3232 6.23744 10.3232 5.76256 10.0303 5.46967L5.53033 0.96967C5.23744 0.676777 4.76256 0.676777 4.46967 0.96967C4.17678 1.26256 4.17678 1.73744 4.46967 2.03033L8.43934 6L4.46967 9.96967C4.17678 10.2626 4.17678 10.7374 4.46967 11.0303C4.76256 11.3232 5.23744 11.3232 5.53033 11.0303Z" fill="currentColor"/>
</svg>
