<svg width="24" height="25" viewBox="0 0 24 25" fill="none" xmlns="http://www.w3.org/2000/svg">
<path fill-rule="evenodd" clip-rule="evenodd" d="M4 6.75C3.58579 6.75 3.25 7.08579 3.25 7.5V21.5C3.25 21.9142 3.58579 22.25 4 22.25H16C16.4142 22.25 16.75 21.9142 16.75 21.5V7.5C16.75 7.08579 16.4142 6.75 16 6.75H4ZM4.75 20.75V8.25H15.25V20.75H4.75ZM7 12.75C7 12.3358 7.33579 12 7.75 12H12.25C12.6642 12 13 12.3358 13 12.75C13 13.1642 12.6642 13.5 12.25 13.5H7.75C7.33579 13.5 7 13.1642 7 12.75ZM7 16.25C7 15.8358 7.33579 15.5 7.75 15.5H12.25C12.6642 15.5 13 15.8358 13 16.25C13 16.6642 12.6642 17 12.25 17H7.75C7.33579 17 7 16.6642 7 16.25Z" fill="#222837"/>
<path fill-rule="evenodd" clip-rule="evenodd" d="M8 2.75C7.58579 2.75 7.25 3.08579 7.25 3.5V6.75H8.75V4.25H19.25V16.75H16.75V18.25H20C20.4142 18.25 20.75 17.9142 20.75 17.5V3.5C20.75 3.08579 20.4142 2.75 20 2.75H8Z" fill="#222837"/>
</svg>
