<svg width="15" height="16" viewBox="0 0 15 16" fill="none" xmlns="http://www.w3.org/2000/svg">
<path d="M7.4925 0.500122C3.3525 0.500122 0 3.86012 0 8.00012C0 12.1401 3.3525 15.5001 7.4925 15.5001C11.64 15.5001 15 12.1401 15 8.00012C15 3.86012 11.64 0.500122 7.4925 0.500122ZM12.69 5.00012H10.4775C10.2428 4.07122 9.89518 3.17454 9.4425 2.33012C10.8106 2.80112 11.9634 3.74892 12.69 5.00012ZM7.5 2.03012C8.1225 2.93012 8.61 3.92762 8.9325 5.00012H6.0675C6.39 3.92762 6.8775 2.93012 7.5 2.03012ZM1.695 9.50012C1.575 9.02012 1.5 8.51762 1.5 8.00012C1.5 7.48262 1.575 6.98012 1.695 6.50012H4.23C4.17 6.99512 4.125 7.49012 4.125 8.00012C4.125 8.51012 4.17 9.00512 4.23 9.50012H1.695ZM2.31 11.0001H4.5225C4.7625 11.9376 5.1075 12.8376 5.5575 13.6701C4.18798 13.2017 3.03437 12.2532 2.31 11.0001V11.0001ZM4.5225 5.00012H2.31C3.03437 3.74701 4.18798 2.79855 5.5575 2.33012C5.10482 3.17454 4.75723 4.07122 4.5225 5.00012V5.00012ZM7.5 13.9701C6.8775 13.0701 6.39 12.0726 6.0675 11.0001H8.9325C8.61 12.0726 8.1225 13.0701 7.5 13.9701ZM9.255 9.50012H5.745C5.6775 9.00512 5.625 8.51012 5.625 8.00012C5.625 7.49012 5.6775 6.98762 5.745 6.50012H9.255C9.3225 6.98762 9.375 7.49012 9.375 8.00012C9.375 8.51012 9.3225 9.00512 9.255 9.50012ZM9.4425 13.6701C9.8925 12.8376 10.2375 11.9376 10.4775 11.0001H12.69C11.9634 12.2513 10.8106 13.1991 9.4425 13.6701V13.6701ZM10.77 9.50012C10.83 9.00512 10.875 8.51012 10.875 8.00012C10.875 7.49012 10.83 6.99512 10.77 6.50012H13.305C13.425 6.98012 13.5 7.48262 13.5 8.00012C13.5 8.51762 13.425 9.02012 13.305 9.50012H10.77Z" fill="#F2F4F7"/>
</svg>
