<svg width="94" height="40" viewBox="0 0 94 40" fill="none" xmlns="http://www.w3.org/2000/svg">
<g filter="url(#filter0_dd_139_1610)">
<path d="M92.45 1.77034C91.9196 1.24004 91.1798 0.960938 90.4261 0.960938H77.5294C76.2034 0.960938 75.045 1.90989 74.7937 3.22168L73.7609 8.52465C73.6911 8.9154 73.9842 9.27823 74.389 9.27823H76.2732C76.6361 9.27823 76.9432 9.02704 77.013 8.66421L77.8923 4.17063H90.0074L83.8242 35.7373H71.7091L72.5605 31.3833C72.6303 30.9925 72.3372 30.6297 71.9325 30.6297H70.0482C69.6853 30.6297 69.3782 30.8809 69.3084 31.2437L68.457 35.6256C68.2756 36.5467 68.5687 37.4817 69.2387 38.1515C69.769 38.6818 70.5088 38.9609 71.2625 38.9609H84.1592C85.4852 38.9609 86.6436 38.012 86.8949 36.7002L93.2316 4.29623C93.413 3.37519 93.1339 2.42623 92.45 1.77034Z" fill="#FDDA25"/>
</g>
<g filter="url(#filter1_di_139_1610)">
<path d="M11.678 12.0691C12.1665 12.0691 12.4457 12.432 12.2363 13.4647C12.0409 14.4973 11.6361 14.8602 11.1337 14.8602H8.02116L5.64839 27.1128C5.53673 27.6571 5.04821 28.0618 3.83391 28.0618C2.61961 28.0618 2.25672 27.6292 2.36838 27.0989L4.74115 14.8462H1.62863C1.14012 14.8462 0.860968 14.4834 1.07033 13.4507C1.27969 12.418 1.6705 12.0552 2.17297 12.0552H11.678V12.0691Z" fill="#F7F8FA"/>
<path d="M21.0434 18.2933C21.5319 18.2933 21.8111 18.6562 21.6017 19.6888C21.4063 20.7215 21.0015 21.0844 20.4991 21.0844H15.9489L15.1813 25.0756H20.4153C20.9038 25.0756 21.1551 25.4384 20.9736 26.4711C20.7782 27.5038 20.3734 27.8666 19.871 27.8666H12.2223C11.5942 27.8666 11.4407 27.5038 11.5523 26.8618L14.2461 13.088C14.3578 12.4321 14.6509 12.0833 15.279 12.0833H22.816C23.3045 12.0833 23.5837 12.4461 23.3743 13.4788C23.1789 14.5115 22.7741 14.8743 22.2717 14.8743H17.1632L16.4933 18.3352H21.0434V18.2933Z" fill="#F7F8FA"/>
<path d="M27.4081 22.8286C27.115 24.3777 27.785 25.3406 29.1388 25.3406C30.4788 25.3406 31.5674 24.3916 31.8745 22.8705V22.8007C31.9862 22.2565 32.4747 21.8518 33.689 21.8518C34.9033 21.8518 35.2662 22.2565 35.1406 22.8007L35.0987 23.024C34.4985 26.1918 31.6372 28.1177 28.5945 28.1177C25.5657 28.1177 23.4721 26.15 24.1142 22.9542L25.2866 16.9395C25.9147 13.7578 28.762 11.7761 31.7908 11.7761C34.8475 11.7761 36.9271 13.7019 36.327 16.8698L36.2851 17.0931C36.1734 17.6373 35.657 18.042 34.4427 18.042C33.2284 18.042 32.8934 17.6373 33.0051 17.0931V17.0233C33.2982 15.5022 32.6003 14.5532 31.2604 14.5532C29.9205 14.5532 28.8318 15.5161 28.5387 17.0651L27.4081 22.8286Z" fill="#F7F8FA"/>
<path d="M48.7632 12.0691C49.2517 12.0691 49.5309 12.4319 49.3215 13.4646C49.1261 14.4973 48.7213 14.8601 48.2189 14.8601H45.1063L42.7336 27.1128C42.6219 27.657 42.1334 28.0617 40.9191 28.0617C39.7048 28.0617 39.3419 27.657 39.4675 27.1128L41.8403 14.8601H38.7278C38.2392 14.8601 37.9601 14.4973 38.1695 13.4646C38.3649 12.4319 38.7696 12.0691 39.2721 12.0691H48.7632Z" fill="#F7F8FA"/>
<path d="M52.671 22.8007C52.3779 24.3497 53.0758 25.3405 54.4157 25.3405C55.7556 25.3405 56.8583 24.3497 57.1514 22.8007L59.1054 12.8227C59.1892 12.2785 59.7056 11.8738 60.9199 11.8738C62.1342 11.8738 62.4692 12.2785 62.3715 12.8227L60.4035 22.9682C59.7754 26.1499 56.9281 28.1316 53.8714 28.1316C50.8147 28.1316 48.735 26.1639 49.3631 22.9682L51.3451 12.8227C51.4288 12.2785 51.9452 11.8738 53.1595 11.8738C54.3738 11.8738 54.7088 12.2785 54.6111 12.8227L52.671 22.8007Z" fill="#F7F8FA"/>
<path d="M70.118 27.0989L72.1139 16.8278C72.407 15.3765 71.8487 14.581 70.7042 14.581C69.5597 14.581 68.6804 15.3625 68.3873 16.8278L66.3914 27.0989C66.2797 27.6431 65.7912 28.0478 64.5769 28.0478C63.3626 28.0478 62.9997 27.6431 63.1253 27.0989L65.1212 16.8976C65.7074 13.8275 68.15 11.804 71.0671 11.804C72.6443 11.804 73.8447 12.5017 74.4169 13.4925C75.38 12.5017 76.8595 11.804 78.4367 11.804C81.3538 11.804 82.9868 13.8275 82.4146 16.8976L80.4186 27.0989C80.307 27.6431 79.8185 28.0478 78.6042 28.0478C77.3899 28.0478 77.027 27.6431 77.1526 27.0989L79.1485 16.8278C79.4416 15.3765 78.8833 14.581 77.7388 14.581C76.5943 14.581 75.715 15.3625 75.4219 16.8278L73.4259 27.0989C73.3143 27.6431 72.8258 28.0478 71.6115 28.0478C70.3692 28.0339 70.0064 27.6292 70.118 27.0989Z" fill="#F7F8FA"/>
</g>
<defs>
<filter id="filter0_dd_139_1610" x="67.8043" y="0.360937" width="26.0813" height="39.2" filterUnits="userSpaceOnUse" color-interpolation-filters="sRGB">
<feFlood flood-opacity="0" result="BackgroundImageFix"/>
<feColorMatrix in="SourceAlpha" type="matrix" values="0 0 0 0 0 0 0 0 0 0 0 0 0 0 0 0 0 0 127 0" result="hardAlpha"/>
<feOffset dx="0.2" dy="0.2"/>
<feGaussianBlur stdDeviation="0.2"/>
<feComposite in2="hardAlpha" operator="out"/>
<feColorMatrix type="matrix" values="0 0 0 0 0.0235294 0 0 0 0 0.027451 0 0 0 0 0.0392157 0 0 0 1 0"/>
<feBlend mode="normal" in2="BackgroundImageFix" result="effect1_dropShadow_139_1610"/>
<feColorMatrix in="SourceAlpha" type="matrix" values="0 0 0 0 0 0 0 0 0 0 0 0 0 0 0 0 0 0 127 0" result="hardAlpha"/>
<feOffset dx="-0.2" dy="-0.2"/>
<feGaussianBlur stdDeviation="0.2"/>
<feComposite in2="hardAlpha" operator="out"/>
<feColorMatrix type="matrix" values="0 0 0 0 0.54902 0 0 0 0 0.576471 0 0 0 0 0.698039 0 0 0 1 0"/>
<feBlend mode="screen" in2="effect1_dropShadow_139_1610" result="effect2_dropShadow_139_1610"/>
<feBlend mode="normal" in="SourceGraphic" in2="effect2_dropShadow_139_1610" result="shape"/>
</filter>
<filter id="filter1_di_139_1610" x="0.7" y="11.4761" width="82.7281" height="17.5555" filterUnits="userSpaceOnUse" color-interpolation-filters="sRGB">
<feFlood flood-opacity="0" result="BackgroundImageFix"/>
<feColorMatrix in="SourceAlpha" type="matrix" values="0 0 0 0 0 0 0 0 0 0 0 0 0 0 0 0 0 0 127 0" result="hardAlpha"/>
<feOffset dx="0.3" dy="0.3"/>
<feGaussianBlur stdDeviation="0.3"/>
<feColorMatrix type="matrix" values="0 0 0 0 0.360784 0 0 0 0 0.411765 0 0 0 0 0.529412 0 0 0 1 0"/>
<feBlend mode="screen" in2="BackgroundImageFix" result="effect1_dropShadow_139_1610"/>
<feBlend mode="normal" in="SourceGraphic" in2="effect1_dropShadow_139_1610" result="shape"/>
<feColorMatrix in="SourceAlpha" type="matrix" values="0 0 0 0 0 0 0 0 0 0 0 0 0 0 0 0 0 0 127 0" result="hardAlpha"/>
<feOffset dx="0.1" dy="0.1"/>
<feGaussianBlur stdDeviation="0.2"/>
<feComposite in2="hardAlpha" operator="arithmetic" k2="-1" k3="1"/>
<feColorMatrix type="matrix" values="0 0 0 0 0.239216 0 0 0 0 0.278431 0 0 0 0 0.356863 0 0 0 0.8 0"/>
<feBlend mode="multiply" in2="shape" result="effect2_innerShadow_139_1610"/>
</filter>
</defs>
</svg>
