<svg xmlns="http://www.w3.org/2000/svg" xmlns:xlink="http://www.w3.org/1999/xlink"><defs>
<linearGradient id="paint0_linear_139_16523" x1="8.99514" y1="0.49568" x2="8.99514" y2="18.4982" gradientUnits="userSpaceOnUse">
<stop stop-color="#F9AA4B"/>
<stop offset="1" stop-color="#F7931A"/>
</linearGradient>
<linearGradient id="paint1_linear_139_16523" x1="8.99514" y1="0.49568" x2="8.99514" y2="18.4982" gradientUnits="userSpaceOnUse">
<stop stop-color="#F9AA4B"/>
<stop offset="1" stop-color="#F7931A"/>
</linearGradient>
<linearGradient id="paint2_linear_139_16523" x1="8.99514" y1="0.49568" x2="8.99514" y2="18.4982" gradientUnits="userSpaceOnUse">
<stop stop-color="#F9AA4B"/>
<stop offset="1" stop-color="#F7931A"/>
</linearGradient>

<linearGradient id="paint0_linear_139_6866" x1="0" y1="0.5" x2="8" y2="16.5" gradientUnits="userSpaceOnUse">
<stop offset="0.194585" stop-color="#CACEDC"/>
<stop offset="0.640234" stop-color="#EDEFF4"/>
<stop offset="1" stop-color="white"/>
</linearGradient>

<linearGradient id="paint0_linear_139_21908" x1="0" y1="0.5" x2="12" y2="24.5" gradientUnits="userSpaceOnUse">
<stop offset="0.356999" stop-color="#FFE353"/>
<stop offset="1" stop-color="#E5B700"/>
</linearGradient>
</defs><symbol id="icon-arrow" viewBox="0 0 6 12"><g fill="none">
<path fill-rule="evenodd" clip-rule="evenodd" d="M5.78033 5.46967C6.07322 5.76256 6.07322 6.23744 5.78033 6.53033L1.28033 11.0303C0.987438 11.3232 0.512564 11.3232 0.219671 11.0303C-0.0732226 10.7374 -0.0732226 10.2626 0.21967 9.96967L4.18934 6L0.219671 2.03033C-0.0732222 1.73744 -0.0732222 1.26256 0.219671 0.96967C0.512564 0.676776 0.987438 0.676777 1.28033 0.96967L5.78033 5.46967Z" fill="currentColor"/>
</g></symbol><symbol id="icon-bell" viewBox="0 0 16 20"><g fill="none">
<path d="M15.2901 14.79L14.0001 13.5V8.5C14.0001 5.43 12.3601 2.86 9.50005 2.18V1.5C9.50005 0.67 8.83005 0 8.00005 0C7.17005 0 6.50005 0.67 6.50005 1.5V2.18C3.63005 2.86 2.00005 5.42 2.00005 8.5V13.5L0.710052 14.79C0.0800514 15.42 0.520051 16.5 1.41005 16.5H14.5801C15.4801 16.5 15.9201 15.42 15.2901 14.79ZM12.0001 14.5H4.00005V8.5C4.00005 6.02 5.51005 4 8.00005 4C10.4901 4 12.0001 6.02 12.0001 8.5V14.5ZM8.00005 19.5C9.10005 19.5 10.0001 18.6 10.0001 17.5H6.00005C6.00005 18.0304 6.21077 18.5391 6.58584 18.9142C6.96091 19.2893 7.46962 19.5 8.00005 19.5Z" fill="#222837"/>
</g></symbol><symbol id="icon-bitcoin" viewBox="0 0 18 19"><g fill="none">
<path d="M8.17026 11.9834C8.96936 12.1964 10.7492 12.6707 11.028 11.5424C11.3181 10.3947 9.61721 10.0105 8.78146 9.82175C8.68539 9.80005 8.60075 9.78093 8.53188 9.76354L7.99047 11.9362C8.04243 11.9493 8.10286 11.9654 8.17026 11.9834Z" fill="url(#paint0_linear_139_16523)"/>
<path d="M8.94275 8.80694C9.61092 8.98744 11.0791 9.38403 11.3374 8.35728C11.5958 7.31706 10.1811 7.00038 9.48548 6.84465C9.40527 6.8267 9.33462 6.81088 9.2772 6.79634L8.78501 8.7651C8.83033 8.77657 8.88339 8.7909 8.94275 8.80694Z" fill="url(#paint1_linear_139_16523)"/>
<path fill-rule="evenodd" clip-rule="evenodd" d="M6.82369 18.2304C11.6408 19.4329 16.5283 16.5005 17.7308 11.6765C18.9333 6.85238 15.9938 1.96509 11.1767 0.76964C6.35252 -0.432916 1.47212 2.49954 0.269639 7.32354C-0.932917 12.1406 1.99954 17.0279 6.82369 18.2304ZM11.3022 6.10728C12.5538 6.53619 13.4608 7.18306 13.285 8.37838C13.1584 9.25025 12.6733 9.67916 12.0194 9.82682C12.9053 10.2909 13.3553 11.001 12.9264 12.2245C12.3991 13.7503 11.1334 13.8768 9.44595 13.5604L9.03813 15.1987L8.05376 14.9526L8.45454 13.3354C8.20141 13.2721 7.93422 13.2018 7.66704 13.1315L7.25922 14.7557L6.27485 14.5096L6.68266 12.8714C6.54967 12.8351 6.41667 12.8011 6.28235 12.7668C6.18233 12.7413 6.08157 12.7155 5.97953 12.6885L4.69281 12.3651L5.185 11.2331C5.185 11.2331 5.90922 11.4229 5.90219 11.4088C6.17641 11.4792 6.30297 11.2964 6.35219 11.1768L6.99907 8.58932C7.03422 8.60338 7.06937 8.61041 7.10453 8.61744C7.06746 8.5989 7.03582 8.59123 7.00961 8.58487C7.00599 8.58399 7.00248 8.58314 6.99907 8.58228L7.46313 6.73306C7.47719 6.52213 7.40688 6.25494 7.0061 6.1565C7.02016 6.14947 6.28891 5.98072 6.28891 5.98072L6.54907 4.92603L7.91313 5.26353V5.27056C8.11704 5.31978 8.32798 5.369 8.54594 5.41822L8.94673 3.80103L9.9311 4.04712L9.53735 5.63619C9.80454 5.69244 10.0717 5.75572 10.3319 5.819L10.7256 4.23697L11.71 4.48306L11.3022 6.10728Z" fill="url(#paint2_linear_139_16523)"/>

</g></symbol><symbol id="icon-cross" viewBox="0 0 16 16"><g fill="none">
<path d="M15.0718 1.99029C15.3647 1.6974 15.3647 1.22252 15.0718 0.929631C14.7789 0.636738 14.304 0.636738 14.0111 0.929631L8.00074 6.94004L1.99033 0.929631C1.69744 0.636738 1.22256 0.636738 0.929669 0.929631C0.636777 1.22252 0.636777 1.6974 0.929669 1.99029L6.94008 8.0007L0.929669 14.0111C0.636776 14.304 0.636776 14.7789 0.929669 15.0718C1.22256 15.3647 1.69744 15.3647 1.99033 15.0718L8.00074 9.06136L14.0111 15.0718C14.304 15.3647 14.7789 15.3647 15.0718 15.0718C15.3647 14.7789 15.3647 14.304 15.0718 14.0111L9.0614 8.0007L15.0718 1.99029Z" fill="#B2B8CC"/>
</g></symbol><symbol id="icon-double-arrow" viewBox="0 0 11 12"><g fill="none">
<path fill-rule="evenodd" clip-rule="evenodd" d="M1.53033 11.0303L6.03033 6.53033C6.32322 6.23744 6.32322 5.76256 6.03033 5.46967L1.53033 0.96967C1.23744 0.676777 0.762563 0.676777 0.469671 0.96967C0.176777 1.26256 0.176777 1.73744 0.46967 2.03033L4.43934 6L0.46967 9.96967C0.176777 10.2626 0.176777 10.7374 0.46967 11.0303C0.762563 11.3232 1.23744 11.3232 1.53033 11.0303ZM5.53033 11.0303L10.0303 6.53033C10.3232 6.23744 10.3232 5.76256 10.0303 5.46967L5.53033 0.96967C5.23744 0.676777 4.76256 0.676777 4.46967 0.96967C4.17678 1.26256 4.17678 1.73744 4.46967 2.03033L8.43934 6L4.46967 9.96967C4.17678 10.2626 4.17678 10.7374 4.46967 11.0303C4.76256 11.3232 5.23744 11.3232 5.53033 11.0303Z" fill="currentColor"/>
</g></symbol><symbol id="icon-etherium" viewBox="0 0 12 19"><g fill="none">
<path d="M5.99838 0.5L5.87427 0.91016V12.8121L5.99838 12.9325L11.6807 9.66687L5.99838 0.5Z" fill="#343434"/>
<path d="M5.99995 0.5L0.317627 9.66687L5.99995 12.9326V7.15574V0.5Z" fill="#8C8C8C"/>
<path d="M5.99841 13.979L5.92847 14.0619V18.3016L5.99841 18.5002L11.6842 10.715L5.99841 13.979Z" fill="#3C3C3B"/>
<path d="M5.99824 18.5002V13.979L0.315918 10.715L5.99824 18.5002Z" fill="#8C8C8C"/>
<path d="M5.99805 12.9326L11.6803 9.66701L5.99805 7.15588V12.9326Z" fill="#141414"/>
<path d="M0.315918 9.66702L5.99816 12.9327V7.15588L0.315918 9.66702Z" fill="#393939"/>
</g></symbol><symbol id="icon-facebook" viewBox="0 0 26 27"><g fill="none">
<path d="M12.9603 24.2H16.4862V17.375H19.4344L19.8797 13.825H16.4862V11.55C16.4862 10.525 16.7629 9.825 18.1829 9.825H20V6.6375C19.6871 6.6 18.6161 6.5 17.3646 6.5C14.7413 6.5 12.9603 8.1625 12.9603 11.2V13.825H10V17.375H12.9603V24.2Z" fill="currentColor"/>
<path fill-rule="evenodd" clip-rule="evenodd" d="M23.7 19.5V7.5C23.7 4.90426 21.5957 2.8 19 2.8H7C4.40426 2.8 2.3 4.90426 2.3 7.5V19.5C2.3 22.0957 4.40426 24.2 7 24.2H19C21.5957 24.2 23.7 22.0957 23.7 19.5ZM26 7.5V19.5C26 23.366 22.866 26.5 19 26.5H7C3.13401 26.5 0 23.366 0 19.5V7.5C0 3.63401 3.13401 0.5 7 0.5H19C22.866 0.5 26 3.63401 26 7.5Z" fill="currentColor"/>
</g></symbol><symbol id="icon-instagram" viewBox="0 0 26 27"><g fill="none">
<path fill-rule="evenodd" clip-rule="evenodd" d="M13.001 0.5C9.47018 0.5 9.02818 0.5156 7.64108 0.578C6.25788 0.6417 5.31278 0.8614 4.48598 1.1825C3.61821 1.5086 2.83206 2.02013 2.18238 2.6814C1.52114 3.33111 1.00961 4.11725 0.683477 4.985C0.362377 5.8118 0.142676 6.7569 0.0789765 8.1401C0.0152765 9.5272 0.000976562 9.9692 0.000976562 13.5C0.000976562 17.0308 0.0152765 17.4728 0.0789765 18.8599C0.142676 20.2431 0.362377 21.1882 0.683477 22.015C1.00965 22.8827 1.52117 23.6689 2.18238 24.3186C2.83211 24.9798 3.61825 25.4913 4.48598 25.8175C5.31278 26.1386 6.25788 26.3583 7.64108 26.422C9.02818 26.4844 9.47018 26.5 13.001 26.5C16.5318 26.5 16.9738 26.4844 18.3609 26.422C19.7441 26.3583 20.6892 26.1386 21.516 25.8175C22.3837 25.4914 23.1699 24.9798 23.8196 24.3186C24.4808 23.6689 24.9923 22.8827 25.3185 22.015C25.6396 21.1882 25.8593 20.2431 25.923 18.8599C25.9854 17.4728 26.001 17.0308 26.001 13.5C26.001 9.9692 25.9854 9.5272 25.923 8.1401C25.8593 6.7569 25.6396 5.8118 25.3185 4.985C24.9923 4.11725 24.4808 3.33111 23.8196 2.6814C23.1699 2.02013 22.3837 1.5086 21.516 1.1825C20.6892 0.8614 19.7441 0.6417 18.3609 0.578C16.9738 0.5156 16.5318 0.5 13.001 0.5ZM13.001 2.8426C16.472 2.8426 16.8828 2.8556 18.253 2.918C19.5218 2.9765 20.2095 3.1871 20.6684 3.3652C21.2742 3.6018 21.7084 3.8839 22.1634 4.3376C22.6184 4.7926 22.8992 5.2268 23.1358 5.8326C23.3126 6.2915 23.5258 6.9792 23.583 8.2467C23.6454 9.6182 23.6584 10.0277 23.6584 13.5C23.6584 16.971 23.6454 17.3818 23.583 18.752C23.5245 20.0208 23.3126 20.7085 23.1358 21.1674C22.9274 21.7321 22.5951 22.2429 22.1634 22.6624C21.7084 23.1174 21.2742 23.3982 20.6684 23.6348C20.2095 23.8116 19.5218 24.0248 18.2543 24.082C16.8841 24.1444 16.4733 24.1574 13.001 24.1574C9.52998 24.1574 9.11788 24.1444 7.74898 24.082C6.48018 24.0235 5.79248 23.8116 5.33358 23.6348C4.76884 23.4265 4.25798 23.0942 3.83858 22.6624C3.40679 22.243 3.07451 21.7321 2.86618 21.1674C2.68808 20.7085 2.47618 20.0208 2.41898 18.7533C2.35658 17.3818 2.34358 16.9723 2.34358 13.5C2.34358 10.029 2.35658 9.6182 2.41898 8.248C2.47748 6.9792 2.68808 6.2915 2.86618 5.8326C3.10278 5.2268 3.38488 4.7926 3.83858 4.3376C4.29358 3.8826 4.72778 3.6018 5.33358 3.3652C5.79248 3.1871 6.48018 2.9752 7.74768 2.918C9.11918 2.8556 9.52868 2.8426 13.001 2.8426ZM13.001 17.8329C11.8518 17.8329 10.7497 17.3764 9.93715 16.5638C9.12458 15.7512 8.66808 14.6492 8.66808 13.5C8.66808 12.3508 9.12458 11.2488 9.93715 10.4362C10.7497 9.6236 11.8518 9.1671 13.001 9.1671C14.1501 9.1671 15.2522 9.6236 16.0648 10.4362C16.8774 11.2488 17.3339 12.3508 17.3339 13.5C17.3339 14.6492 16.8774 15.7512 16.0648 16.5638C15.2522 17.3764 14.1501 17.8329 13.001 17.8329ZM13.001 6.8245C12.1243 6.8245 11.2563 6.99717 10.4464 7.33264C9.63646 7.66812 8.90056 8.15983 8.28068 8.77971C7.66081 9.39959 7.16909 10.1355 6.83362 10.9454C6.49814 11.7553 6.32548 12.6234 6.32548 13.5C6.32548 14.3766 6.49814 15.2447 6.83362 16.0546C7.16909 16.8645 7.66081 17.6004 8.28068 18.2203C8.90056 18.8402 9.63646 19.3319 10.4464 19.6674C11.2563 20.0028 12.1243 20.1755 13.001 20.1755C14.7714 20.1755 16.4694 19.4722 17.7213 18.2203C18.9732 16.9684 19.6765 15.2705 19.6765 13.5C19.6765 11.7295 18.9732 10.0316 17.7213 8.77971C16.4694 7.52781 14.7714 6.8245 13.001 6.8245ZM21.5004 6.5606C21.5004 6.76546 21.46 6.96832 21.3816 7.15759C21.3032 7.34685 21.1883 7.51883 21.0435 7.66369C20.8986 7.80855 20.7266 7.92345 20.5374 8.00185C20.3481 8.08025 20.1452 8.1206 19.9404 8.1206C19.7355 8.1206 19.5327 8.08025 19.3434 8.00185C19.1541 7.92345 18.9821 7.80855 18.8373 7.66369C18.6924 7.51883 18.5775 7.34685 18.4991 7.15759C18.4207 6.96832 18.3804 6.76546 18.3804 6.5606C18.3804 6.14686 18.5447 5.75007 18.8373 5.45751C19.1298 5.16496 19.5266 5.0006 19.9404 5.0006C20.3541 5.0006 20.7509 5.16496 21.0435 5.45751C21.336 5.75007 21.5004 6.14686 21.5004 6.5606Z" fill="currentColor"/>
</g></symbol><symbol id="icon-light" viewBox="0 0 20 19"><g fill="none">
<path d="M10 14.1875C8.7568 14.1875 7.56451 13.6936 6.68544 12.8146C5.80636 11.9355 5.3125 10.7432 5.3125 9.5C5.3125 8.2568 5.80636 7.06451 6.68544 6.18544C7.56451 5.30636 8.7568 4.8125 10 4.8125C11.2432 4.8125 12.4355 5.30636 13.3146 6.18544C14.1936 7.06451 14.6875 8.2568 14.6875 9.5C14.6875 10.7432 14.1936 11.9355 13.3146 12.8146C12.4355 13.6936 11.2432 14.1875 10 14.1875ZM10 0.125C10.2486 0.125 10.4871 0.223772 10.6629 0.399587C10.8387 0.575403 10.9375 0.81386 10.9375 1.0625V2.9375C10.9375 3.18614 10.8387 3.4246 10.6629 3.60041C10.4871 3.77623 10.2486 3.875 10 3.875C9.75136 3.875 9.5129 3.77623 9.33709 3.60041C9.16127 3.4246 9.0625 3.18614 9.0625 2.9375V1.0625C9.0625 0.81386 9.16127 0.575403 9.33709 0.399587C9.5129 0.223772 9.75136 0.125 10 0.125ZM10 15.125C10.2486 15.125 10.4871 15.2238 10.6629 15.3996C10.8387 15.5754 10.9375 15.8139 10.9375 16.0625V17.9375C10.9375 18.1861 10.8387 18.4246 10.6629 18.6004C10.4871 18.7762 10.2486 18.875 10 18.875C9.75136 18.875 9.5129 18.7762 9.33709 18.6004C9.16127 18.4246 9.0625 18.1861 9.0625 17.9375V16.0625C9.0625 15.8139 9.16127 15.5754 9.33709 15.3996C9.5129 15.2238 9.75136 15.125 10 15.125ZM1.5625 8.5625H3.4375C3.68614 8.5625 3.9246 8.66127 4.10041 8.83709C4.27623 9.0129 4.375 9.25136 4.375 9.5C4.375 9.74864 4.27623 9.9871 4.10041 10.1629C3.9246 10.3387 3.68614 10.4375 3.4375 10.4375H1.5625C1.31386 10.4375 1.0754 10.3387 0.899587 10.1629C0.723772 9.9871 0.625 9.74864 0.625 9.5C0.625 9.25136 0.723772 9.0129 0.899587 8.83709C1.0754 8.66127 1.31386 8.5625 1.5625 8.5625ZM16.5625 8.5625H18.4375C18.6861 8.5625 18.9246 8.66127 19.1004 8.83709C19.2762 9.0129 19.375 9.25136 19.375 9.5C19.375 9.74864 19.2762 9.9871 19.1004 10.1629C18.9246 10.3387 18.6861 10.4375 18.4375 10.4375H16.5625C16.3139 10.4375 16.0754 10.3387 15.8996 10.1629C15.7238 9.9871 15.625 9.74864 15.625 9.5C15.625 9.25136 15.7238 9.0129 15.8996 8.83709C16.0754 8.66127 16.3139 8.5625 16.5625 8.5625ZM16.6291 2.87094C16.8048 3.04674 16.9035 3.28516 16.9035 3.53375C16.9035 3.78234 16.8048 4.02076 16.6291 4.19656L15.3034 5.52219C15.217 5.61173 15.1135 5.68315 14.9991 5.73228C14.8848 5.78142 14.7617 5.80728 14.6373 5.80836C14.5128 5.80944 14.3893 5.78572 14.2741 5.73858C14.1589 5.69144 14.0542 5.62183 13.9662 5.53381C13.8782 5.44578 13.8086 5.34111 13.7614 5.22589C13.7143 5.11068 13.6906 4.98723 13.6916 4.86275C13.6927 4.73827 13.7186 4.61525 13.7677 4.50087C13.8169 4.38649 13.8883 4.28304 13.9778 4.19656L15.3034 2.87094C15.4792 2.69518 15.7177 2.59645 15.9663 2.59645C16.2148 2.59645 16.4533 2.69518 16.6291 2.87094ZM6.02219 13.4778C6.19794 13.6536 6.29667 13.892 6.29667 14.1406C6.29667 14.3892 6.19794 14.6276 6.02219 14.8034L4.69656 16.1291C4.61008 16.2186 4.50663 16.29 4.39225 16.3392C4.27788 16.3883 4.15486 16.4142 4.03038 16.4152C3.9059 16.4163 3.78245 16.3926 3.66723 16.3455C3.55202 16.2983 3.44734 16.2287 3.35932 16.1407C3.27129 16.0527 3.20168 15.948 3.15454 15.8328C3.1074 15.7176 3.08368 15.5941 3.08477 15.4696C3.08585 15.3451 3.11171 15.2221 3.16084 15.1077C3.20998 14.9934 3.2814 14.8899 3.37094 14.8034L4.69656 13.4778C4.87237 13.3021 5.11078 13.2033 5.35938 13.2033C5.60797 13.2033 5.84638 13.3021 6.02219 13.4778ZM4.69656 2.87094L6.02219 4.19656C6.19296 4.37338 6.28746 4.61019 6.28532 4.856C6.28318 5.10181 6.18459 5.33695 6.01077 5.51077C5.83695 5.68459 5.60181 5.78318 5.356 5.78532C5.11019 5.78746 4.87338 5.69296 4.69656 5.52219L3.37187 4.19656C3.2011 4.01975 3.10661 3.78293 3.10874 3.53712C3.11088 3.29131 3.20948 3.05618 3.3833 2.88236C3.55712 2.70854 3.79225 2.60994 4.03806 2.60781C4.28387 2.60567 4.51975 2.70016 4.69656 2.87094ZM15.3034 13.4778L16.6291 14.8034C16.7998 14.9803 16.8943 15.2171 16.8922 15.4629C16.8901 15.7087 16.7915 15.9438 16.6176 16.1176C16.4438 16.2915 16.2087 16.3901 15.9629 16.3922C15.7171 16.3943 15.4803 16.2998 15.3034 16.1291L13.9778 14.8034C13.8883 14.717 13.8169 14.6135 13.7677 14.4991C13.7186 14.3847 13.6927 14.2617 13.6916 14.1373C13.6906 14.0128 13.7143 13.8893 13.7614 13.7741C13.8086 13.6589 13.8782 13.5542 13.9662 13.4662C14.0542 13.3782 14.1589 13.3086 14.2741 13.2614C14.3893 13.2143 14.5128 13.1906 14.6373 13.1916C14.7617 13.1927 14.8848 13.2186 14.9991 13.2677C15.1135 13.3169 15.217 13.3883 15.3034 13.4778Z" fill="#F2F4F7"/>
</g></symbol><symbol id="icon-lightcoin" viewBox="0 0 18 19"><g fill="none">
<path d="M9 0.5C7.21997 0.5 5.47991 1.02784 3.99987 2.01677C2.51983 3.00571 1.36628 4.41131 0.685088 6.05585C0.00389957 7.70038 -0.17433 9.50998 0.172936 11.2558C0.520203 13.0016 1.37737 14.6053 2.63604 15.864C3.89472 17.1226 5.49836 17.9798 7.24419 18.3271C8.99002 18.6743 10.7996 18.4961 12.4442 17.8149C14.0887 17.1337 15.4943 15.9802 16.4832 14.5001C17.4722 13.0201 18 11.28 18 9.5C18 7.11305 17.0518 4.82387 15.364 3.13604C13.6761 1.44821 11.387 0.5 9 0.5V0.5ZM8.8035 3.2585H10.7415C10.7811 3.25855 10.8202 3.26776 10.8557 3.28541C10.8912 3.30307 10.9222 3.32869 10.9461 3.36027C10.9701 3.39185 10.9864 3.42855 10.9939 3.46749C11.0013 3.50643 10.9996 3.54656 10.989 3.58475L9.4665 8.77325L10.8953 8.33675L10.5893 9.3755L9.14625 9.7955L8.21025 12.956H13.2173C13.2569 12.9562 13.296 12.9656 13.3315 12.9834C13.3669 13.0013 13.3978 13.0271 13.4216 13.0588C13.4454 13.0906 13.4616 13.1274 13.4688 13.1664C13.476 13.2054 13.4741 13.2456 13.4633 13.2837L13.0268 14.7837C13.0059 14.8551 12.9624 14.9178 12.9029 14.9624C12.8434 15.007 12.7711 15.0312 12.6968 15.0312H5.04975L6.342 10.6647L4.9125 11.0997L5.2275 10.079L6.66 9.644L8.4765 3.509C8.49642 3.43726 8.53921 3.37398 8.59836 3.32877C8.65751 3.28356 8.7298 3.25889 8.80425 3.2585H8.8035Z" fill="#CACEDC"/>
</g></symbol><symbol id="icon-linkedin" viewBox="0 0 26 27"><g fill="none">
<path fill-rule="evenodd" clip-rule="evenodd" d="M7 2.8H19C21.5957 2.8 23.7 4.90426 23.7 7.5V19.5C23.7 22.0957 21.5957 24.2 19 24.2H7C4.40426 24.2 2.3 22.0957 2.3 19.5V7.5C2.3 4.90426 4.40426 2.8 7 2.8ZM19 0.5H7C3.13401 0.5 0 3.63401 0 7.5V19.5C0 23.366 3.13401 26.5 7 26.5H19C22.866 26.5 26 23.366 26 19.5V7.5C26 3.63401 22.866 0.5 19 0.5ZM9.17811 10.7696V19.625H6.17706V10.7696H9.17811ZM9.3759 8.03005C9.3759 8.87981 8.72449 9.5598 7.67797 9.5598H7.67788H7.65838C6.65125 9.5598 6 8.87985 6 8.03005C6 7.16113 6.67129 6.5 7.69783 6.5C8.72453 6.5 9.3564 7.16112 9.3759 8.03005ZM13.8402 19.625H10.8392L10.8392 19.6248C10.8392 19.6248 10.8786 11.6003 10.8392 10.7694H13.8403V12.0232C14.2391 11.4199 14.953 10.5617 16.5449 10.5617C18.5194 10.5617 20 11.8273 20 14.5473V19.6249H16.9991V14.8875C16.9991 13.697 16.5647 12.885 15.4787 12.885C14.6497 12.885 14.1559 13.4327 13.939 13.9615C13.8597 14.1506 13.8402 14.415 13.8402 14.6797V19.625Z" fill="currentColor"/>
</g></symbol><symbol id="icon-messenger" viewBox="0 0 26 27"><g fill="none">
<path d="M7.49347 22.8933C8.2605 22.5553 9.11853 22.4916 9.92196 22.7126C10.923 22.9856 11.9565 23.1234 13.0005 23.1208C18.9612 23.1208 23.4008 18.8476 23.4008 13.1105C23.4008 7.37335 18.9612 3.10009 13.0005 3.10009C7.03976 3.10009 2.60009 7.37335 2.60009 13.1105C2.60009 16.0616 3.76494 18.6643 5.80601 20.4895C6.17686 20.818 6.47675 21.2187 6.68733 21.6672C6.8979 22.1156 7.01473 22.6023 7.03065 23.0974L7.49347 22.8933ZM13.0005 0.5C20.3249 0.5 26.0009 5.86529 26.0009 13.1105C26.0009 20.3556 20.3249 25.7209 13.0005 25.7209C11.7292 25.7242 10.4633 25.5563 9.23684 25.2217C9.00647 25.1584 8.76133 25.1763 8.54261 25.2724L5.96332 26.4112C5.80748 26.4801 5.63711 26.5096 5.46718 26.4972C5.29726 26.4848 5.13298 26.4309 4.9888 26.3401C4.84462 26.2493 4.72494 26.1245 4.6403 25.9767C4.55565 25.8288 4.50863 25.6624 4.50336 25.4921L4.43186 23.178C4.42718 23.0373 4.39387 22.899 4.33396 22.7716C4.27406 22.6442 4.18882 22.5304 4.08345 22.437C1.55356 20.1762 0 16.9027 0 13.1105C0 5.86529 5.67731 0.5 13.0005 0.5ZM5.19369 16.7987L9.01193 10.7405C9.15559 10.5124 9.34498 10.3166 9.56814 10.1654C9.7913 10.0142 10.0434 9.91086 10.3085 9.86199C10.5736 9.81313 10.8459 9.81975 11.1083 9.88145C11.3707 9.94315 11.6175 10.0586 11.833 10.2205L14.8699 12.4955C15.0053 12.5977 15.1703 12.653 15.3399 12.653C15.5095 12.653 15.6745 12.5977 15.8099 12.4955L19.9115 9.38062C20.4588 8.96591 21.1739 9.62113 20.8073 10.2036L16.989 16.2618C16.8454 16.4899 16.656 16.6857 16.4328 16.8369C16.2097 16.9881 15.9576 17.0914 15.6925 17.1403C15.4274 17.1891 15.155 17.1825 14.8926 17.1208C14.6302 17.0591 14.3835 16.9437 14.1679 16.7818L11.131 14.5067C10.9956 14.4045 10.8306 14.3492 10.661 14.3492C10.4914 14.3492 10.3264 14.4045 10.1911 14.5067L6.08942 17.6203C5.5421 18.035 4.82707 17.3798 5.19369 16.7974V16.7987Z" fill="currentColor"/>
</g></symbol><symbol id="icon-night" viewBox="0 0 16 17"><g fill="none">
<path fill-rule="evenodd" clip-rule="evenodd" d="M8.7851 0.5C7.93386 1.772 6.42146 4.948 8.34708 8.556C10.2314 12.108 14.0496 13.068 16 12.884C14.5206 15.06 11.9752 16.5 9.08262 16.5C8.19006 16.5 7.32229 16.356 6.51237 16.1C7.54543 15.556 8.26444 14.508 8.26444 13.292C8.26385 12.5965 8.02978 11.9201 7.5975 11.3645C7.16522 10.809 6.55815 10.4045 5.86774 10.212C5.10741 9.156 3.85121 8.492 2.47931 8.492C1.89253 8.492 1.33881 8.612 0.826415 8.828C0.826415 8.772 0.822282 8.716 0.81815 8.66C0.814018 8.604 0.809886 8.548 0.809886 8.492C0.809886 4.164 4.35534 0.652 8.7851 0.5ZM4.80992 11.6919H4.95868C5.86777 11.6919 6.61158 12.4119 6.61158 13.2919C6.61158 14.1719 5.86777 14.8919 4.95868 14.8919H2.47934C1.10744 14.8919 0 13.8199 0 12.4919C0 11.1639 1.10744 10.0919 2.47934 10.0919C3.55372 10.0919 4.46281 10.7639 4.80992 11.6919Z" fill="url(#paint0_linear_139_6866)"/>

</g></symbol><symbol id="icon-person" viewBox="0 0 24 25"><g fill="none">
<path fill-rule="evenodd" clip-rule="evenodd" d="M13.979 12.6624C16.476 11.8374 18.2766 9.49761 18.2766 6.74C18.2766 3.29374 15.4644 0.5 11.9953 0.5C8.52631 0.5 5.71411 3.29374 5.71411 6.74C5.71411 9.49876 7.51621 11.8394 10.0147 12.6635C4.98275 13.5012 1.00978 17.4701 0.165917 22.5C0.0568378 23.1502 4.18832e-05 23.8181 0 24.4992L24 24.5C24 23.8188 23.9432 23.1502 23.8341 22.5C22.9899 17.468 19.014 13.4979 13.979 12.6624ZM16.2766 6.74C16.2766 9.06929 14.3722 10.98 11.9953 10.98C9.61844 10.98 7.71411 9.06929 7.71411 6.74C7.71411 4.41071 9.61844 2.5 11.9953 2.5C14.3722 2.5 16.2766 4.41071 16.2766 6.74ZM2.20004 22.5C3.12658 17.9355 7.16208 14.5 12 14.5C16.8379 14.5 20.8734 17.9355 21.8 22.5H2.20004Z" fill="url(#paint0_linear_139_21908)"/>

</g></symbol><symbol id="icon-planet2" viewBox="0 0 15 16"><g fill="none">
<path d="M7.4925 0.500122C3.3525 0.500122 0 3.86012 0 8.00012C0 12.1401 3.3525 15.5001 7.4925 15.5001C11.64 15.5001 15 12.1401 15 8.00012C15 3.86012 11.64 0.500122 7.4925 0.500122ZM12.69 5.00012H10.4775C10.2428 4.07122 9.89518 3.17454 9.4425 2.33012C10.8106 2.80112 11.9634 3.74892 12.69 5.00012ZM7.5 2.03012C8.1225 2.93012 8.61 3.92762 8.9325 5.00012H6.0675C6.39 3.92762 6.8775 2.93012 7.5 2.03012ZM1.695 9.50012C1.575 9.02012 1.5 8.51762 1.5 8.00012C1.5 7.48262 1.575 6.98012 1.695 6.50012H4.23C4.17 6.99512 4.125 7.49012 4.125 8.00012C4.125 8.51012 4.17 9.00512 4.23 9.50012H1.695ZM2.31 11.0001H4.5225C4.7625 11.9376 5.1075 12.8376 5.5575 13.6701C4.18798 13.2017 3.03437 12.2532 2.31 11.0001V11.0001ZM4.5225 5.00012H2.31C3.03437 3.74701 4.18798 2.79855 5.5575 2.33012C5.10482 3.17454 4.75723 4.07122 4.5225 5.00012V5.00012ZM7.5 13.9701C6.8775 13.0701 6.39 12.0726 6.0675 11.0001H8.9325C8.61 12.0726 8.1225 13.0701 7.5 13.9701ZM9.255 9.50012H5.745C5.6775 9.00512 5.625 8.51012 5.625 8.00012C5.625 7.49012 5.6775 6.98762 5.745 6.50012H9.255C9.3225 6.98762 9.375 7.49012 9.375 8.00012C9.375 8.51012 9.3225 9.00512 9.255 9.50012ZM9.4425 13.6701C9.8925 12.8376 10.2375 11.9376 10.4775 11.0001H12.69C11.9634 12.2513 10.8106 13.1991 9.4425 13.6701V13.6701ZM10.77 9.50012C10.83 9.00512 10.875 8.51012 10.875 8.00012C10.875 7.49012 10.83 6.99512 10.77 6.50012H13.305C13.425 6.98012 13.5 7.48262 13.5 8.00012C13.5 8.51762 13.425 9.02012 13.305 9.50012H10.77Z" fill="#F2F4F7"/>
</g></symbol><symbol id="icon-search" viewBox="0 0 17 17"><g fill="none">
<path d="M6.82788 13.5618C8.20581 13.5618 9.49243 13.1136 10.5383 12.3665L14.4729 16.3011C14.6555 16.4837 14.8962 16.575 15.1453 16.575C15.6848 16.575 16.075 16.16 16.075 15.6287C16.075 15.3797 15.9919 15.1473 15.8093 14.9646L11.8997 11.0467C12.7214 9.96758 13.2112 8.63115 13.2112 7.17851C13.2112 3.66728 10.3391 0.795212 6.82788 0.795212C3.30835 0.795212 0.44458 3.66728 0.44458 7.17851C0.44458 10.6897 3.30835 13.5618 6.82788 13.5618ZM6.82788 12.1839C4.08032 12.1839 1.82251 9.91777 1.82251 7.17851C1.82251 4.43925 4.08032 2.17314 6.82788 2.17314C9.56714 2.17314 11.8333 4.43925 11.8333 7.17851C11.8333 9.91777 9.56714 12.1839 6.82788 12.1839Z" fill="#B2B8CC"/>
</g></symbol><symbol id="icon-sheets" viewBox="0 0 24 25"><g fill="none">
<path fill-rule="evenodd" clip-rule="evenodd" d="M4 6.75C3.58579 6.75 3.25 7.08579 3.25 7.5V21.5C3.25 21.9142 3.58579 22.25 4 22.25H16C16.4142 22.25 16.75 21.9142 16.75 21.5V7.5C16.75 7.08579 16.4142 6.75 16 6.75H4ZM4.75 20.75V8.25H15.25V20.75H4.75ZM7 12.75C7 12.3358 7.33579 12 7.75 12H12.25C12.6642 12 13 12.3358 13 12.75C13 13.1642 12.6642 13.5 12.25 13.5H7.75C7.33579 13.5 7 13.1642 7 12.75ZM7 16.25C7 15.8358 7.33579 15.5 7.75 15.5H12.25C12.6642 15.5 13 15.8358 13 16.25C13 16.6642 12.6642 17 12.25 17H7.75C7.33579 17 7 16.6642 7 16.25Z" fill="#222837"/>
<path fill-rule="evenodd" clip-rule="evenodd" d="M8 2.75C7.58579 2.75 7.25 3.08579 7.25 3.5V6.75H8.75V4.25H19.25V16.75H16.75V18.25H20C20.4142 18.25 20.75 17.9142 20.75 17.5V3.5C20.75 3.08579 20.4142 2.75 20 2.75H8Z" fill="#222837"/>
</g></symbol><symbol id="icon-telegram" viewBox="0 0 26 27"><g fill="none">
<path fill-rule="evenodd" clip-rule="evenodd" d="M7 2.8H19C21.5957 2.8 23.7 4.90426 23.7 7.5V19.5C23.7 22.0957 21.5957 24.2 19 24.2H7C4.40426 24.2 2.3 22.0957 2.3 19.5V7.5C2.3 4.90426 4.40426 2.8 7 2.8ZM19 0.5H7C3.13401 0.5 0 3.63401 0 7.5V19.5C0 23.366 3.13401 26.5 7 26.5H19C22.866 26.5 26 23.366 26 19.5V7.5C26 3.63401 22.866 0.5 19 0.5ZM6.65371 12.2717L19.055 7.57581C19.6209 7.32443 20.1679 7.70974 19.9517 8.56072L17.8401 18.3329C17.6925 19.028 17.2665 19.1928 16.6734 18.8721L13.4566 16.5389L11.9101 18.0156C11.9043 18.0211 11.8986 18.0265 11.8929 18.0319C11.7204 18.1958 11.5774 18.3316 11.2659 18.3316L11.4855 15.1089L11.4841 15.1083H11.4855L17.454 9.81899C17.7156 9.59096 17.3973 9.47901 17.049 9.68712L9.68235 14.2511L6.49844 13.2758C5.81227 13.0691 5.80737 12.6055 6.65371 12.2717Z" fill="currentColor"/>
</g></symbol><symbol id="icon-twitter" viewBox="0 0 26 27"><g fill="none">
<path fill-rule="evenodd" clip-rule="evenodd" d="M7.00098 2.8H19.001C21.5967 2.8 23.701 4.90426 23.701 7.5V19.5C23.701 22.0957 21.5967 24.2 19.001 24.2H7.00098C4.40524 24.2 2.30098 22.0957 2.30098 19.5V7.5C2.30098 4.90426 4.40524 2.8 7.00098 2.8ZM19.001 0.5H7.00098C3.13498 0.5 0.000976562 3.63401 0.000976562 7.5V19.5C0.000976562 23.366 3.13498 26.5 7.00098 26.5H19.001C22.867 26.5 26.001 23.366 26.001 19.5V7.5C26.001 3.63401 22.867 0.5 19.001 0.5ZM18.3516 10.302C18.9331 10.2323 19.4861 10.0781 20.001 9.85001L19.9997 9.85186C19.6143 10.4283 19.1293 10.9315 18.5674 11.3378C18.573 11.4611 18.5761 11.5857 18.5761 11.709C18.5761 15.5046 15.6874 19.8811 10.4033 19.8811C8.84237 19.8828 7.31396 19.4348 6.00098 18.5906C6.22854 18.6174 6.45748 18.6307 6.68661 18.6307C7.98012 18.6326 9.23667 18.1993 10.2541 17.4006C9.65476 17.3896 9.07384 17.1915 8.59268 16.8339C8.11152 16.4764 7.75421 15.9773 7.57078 15.4066C8.00136 15.4886 8.44495 15.4718 8.86806 15.3573C8.21792 15.2259 7.63326 14.8736 7.21328 14.3603C6.7933 13.8469 6.56387 13.204 6.56391 12.5407V12.5038C6.96276 12.7255 7.40879 12.8487 7.86489 12.8632C7.47161 12.6006 7.14924 12.2449 6.92638 11.8278C6.70352 11.4107 6.58707 10.945 6.58734 10.4721C6.58734 9.94681 6.72915 9.45355 6.97578 9.02811C7.69708 9.91546 8.5969 10.6412 9.61685 11.1583C10.6368 11.6754 11.7541 11.9723 12.8962 12.0296C12.7516 11.4135 12.8145 10.7669 13.0751 10.1902C13.3356 9.61346 13.7793 9.13892 14.3372 8.84021C14.8952 8.5415 15.5361 8.43535 16.1605 8.53822C16.7849 8.6411 17.3579 8.94726 17.7905 9.40915C18.4339 9.28288 19.0507 9.04722 19.6144 8.71242C19.4004 9.378 18.9516 9.94298 18.3516 10.302Z" fill="currentColor"/>
</g></symbol><symbol id="icon-usdt" viewBox="0 0 19 17"><g fill="none">
<path fill-rule="evenodd" clip-rule="evenodd" d="M0.141911 7.62299L3.42394 0.578583C3.43469 0.554857 3.45192 0.534814 3.47356 0.520872C3.4952 0.506931 3.52033 0.499685 3.54591 0.50001H14.7114C14.7369 0.499942 14.7618 0.507366 14.7832 0.521396C14.8047 0.535425 14.8217 0.555467 14.8323 0.579125L18.1143 7.62353C18.1268 7.64974 18.1308 7.67933 18.1256 7.708C18.1205 7.73666 18.1065 7.76289 18.0857 7.78285L9.22172 16.4616C9.19655 16.4862 9.16301 16.5 9.12813 16.5C9.09324 16.5 9.0597 16.4862 9.03453 16.4616L0.170547 7.7823C0.149761 7.76235 0.135769 7.73612 0.130617 7.70746C0.125464 7.67879 0.129422 7.64919 0.141911 7.62299ZM9.14113 8.37132C9.87454 8.37132 10.2033 8.35127 10.267 8.34639L10.2648 8.34585C12.5149 8.24398 14.1933 7.84299 14.1933 7.36397C14.1933 6.88495 12.5144 6.48396 10.2648 6.38154V7.94757C10.2017 7.95353 9.8512 7.98333 9.15121 7.98333C8.56788 7.98333 8.14576 7.95786 7.99833 7.94703V6.38046C5.74403 6.48342 4.06138 6.88386 4.06138 7.36397C4.06138 7.84407 5.74403 8.24506 7.99833 8.34639C8.14364 8.35344 8.5578 8.37132 9.14113 8.37132ZM10.267 6.21901V6.21952L10.2664 6.21898C10.2666 6.21899 10.2668 6.219 10.267 6.21901ZM10.267 4.81769V6.21901C12.8137 6.33935 14.7273 6.85519 14.7273 7.47343C14.7273 8.09171 12.8119 8.60758 10.2664 8.72733V13.2211H7.9978V8.72896C5.44653 8.60866 3.5279 8.09279 3.5279 7.47397C3.5279 6.85514 5.44653 6.33874 7.9978 6.21898V4.81769H4.85895V2.67998H13.4063V4.81769H10.267Z" fill="#50AF95"/>
</g></symbol></svg>